<svg width="90" height="90" viewBox="0 0 90 90" fill="none" xmlns="http://www.w3.org/2000/svg">
<path d="M45 90C69.8528 90 90 69.8528 90 45C90 20.1472 69.8528 0 45 0C20.1472 0 3.37582e-06 20.1472 7.5401e-06 45C1.17044e-05 69.8528 20.1472 90 45 90Z" fill="#4B62FF"/>
<path d="M76.4641 58.3872L74.8956 57.3238C77.3946 55.4362 78.1124 52.4852 78.1124 52.4055C79.6544 50.2254 79.6544 48.0188 79.548 47.3808C79.4417 46.7427 78.7505 46.982 78.7505 46.982C78.7505 46.982 79.6544 44.0044 78.9897 42.0636C78.2985 40.1229 77.4478 39.6178 75.6134 37.7833C74.0182 36.1882 71.6255 36.3477 71.0141 36.4009C70.4292 36.3477 68.0099 36.1882 66.4147 37.7833C64.5803 39.6178 63.7296 40.1229 63.0384 42.0636C62.3471 44.0044 63.2776 46.982 63.2776 46.982C63.2776 46.982 62.5864 46.7427 62.4801 47.3808C62.3737 48.0188 62.3737 50.2254 63.9157 52.4055C63.9157 52.4852 64.6601 55.5425 67.2921 57.4301L64.6601 58.7594L61.9218 59.9824L55.3285 56.925L53.2814 55.9679L53.2283 56.0743V56.1008L52.4573 55.7553L48.4428 68.1176L46.7679 63.8639L47.9643 59.0785L45.0665 57.1377V55.8616C46.6882 55.5957 47.9643 54.9843 49.0011 54.1867L52.4573 55.7553V55.7287L52.4839 55.6223L51.3673 55.1172L49.1075 54.0803C51.9256 51.8737 52.7497 48.5239 52.7497 48.4176C54.5575 45.892 54.5575 43.2866 54.4246 42.5688C54.2917 41.851 53.4941 42.0902 53.4941 42.0902C53.4941 42.0902 54.5575 38.6341 53.76 36.3743C52.9624 34.1145 51.9521 33.5031 49.8253 31.3762C47.9643 29.5152 45.1728 29.6747 44.455 29.7545C43.7638 29.6747 40.9457 29.5152 39.0847 31.3762C36.9578 33.5031 35.9476 34.1145 35.15 36.3743C34.3524 38.6341 35.4159 42.0902 35.4159 42.0902C35.4159 42.0902 34.6183 41.8244 34.4854 42.5688C34.3524 43.3132 34.3525 45.892 36.1603 48.4176C36.1603 48.5239 37.0376 52.113 40.1215 54.3196L37.4896 55.6223V55.5957L28.0517 59.9824L24.5955 58.4404V58.467L22.6548 57.5631C25.4463 55.7021 26.2172 52.4852 26.2172 52.3789C27.7592 50.1988 27.7592 47.9922 27.6529 47.3542C27.5465 46.7161 26.8553 46.9554 26.8553 46.9554C26.8553 46.9554 27.7592 43.9778 27.0946 42.0371C26.4033 40.0963 25.5526 39.5912 23.7182 37.7568C22.123 36.1616 19.7303 36.3211 19.1189 36.3743C18.534 36.3211 16.1147 36.1616 14.5196 37.7568C12.6852 39.5912 11.8344 40.0963 11.1432 42.0371C10.452 43.9778 11.3825 46.9554 11.3825 46.9554C11.3825 46.9554 10.6912 46.7161 10.5849 47.3542C10.4785 47.9922 10.4785 50.1988 12.0205 52.3789C12.0205 52.4586 12.7649 55.516 15.3703 57.4035L13.403 58.4138C12.4725 58.7328 10.0798 60.1685 10 60.1153C12.4725 66.4959 14.4132 68.7822 18.2415 72.9561C22.0433 76.3059 26.0311 78.6189 29.7531 80.2406C37.33 83.5372 43.7638 83.8829 44.9069 83.936C44.9335 83.936 44.9867 83.936 45.0133 83.936H45.0399C45.0665 83.936 45.0665 83.936 45.0931 83.936C46.2362 83.9094 52.67 83.5372 60.2469 80.2406C63.9689 78.6189 67.9833 76.3059 71.7584 72.9561C75.5868 68.7822 77.5541 66.4959 80 60.1153C79.8671 60.1685 77.3149 58.6265 76.4641 58.3872ZM18.853 60.7799L16.8325 62.0295L18.1086 65.1666L16.7793 68.3569C16.7793 68.3569 14.5196 59.2114 13.5891 58.4404L15.4235 57.5099C16.3274 58.148 17.4706 58.6265 18.853 58.8126V60.7799V60.7799ZM21.166 68.7556L20.2355 65.0868L21.033 61.8965L18.9859 60.7002V58.8126C19.0125 58.8126 19.0391 58.8126 19.0657 58.8126C19.1189 58.8126 19.1455 58.8126 19.1986 58.8126C20.5013 58.6531 21.5913 58.2277 22.4687 57.6694L24.4892 58.6265L21.166 68.7556ZM31.3483 80.8787L28.1314 59.9558L28.2377 59.9292L31.4546 80.8521L31.3483 80.8787ZM44.8538 57.1111L41.9559 59.0519L43.1523 63.8373L41.4774 68.091L37.463 55.7553L40.1747 54.426C41.2381 55.1704 42.5674 55.7287 44.2157 55.9148C44.2689 55.9148 44.3221 55.9148 44.3752 55.9413C44.4284 55.9413 44.4816 55.9413 44.5348 55.9148C44.6411 55.8882 44.7474 55.8882 44.8272 55.8616V57.1111H44.8538ZM58.5454 80.8787L58.439 80.8521L61.6559 59.9292L61.7623 59.9558L58.5454 80.8787ZM70.828 60.7533L68.834 61.8965L69.6316 65.0868L68.7011 68.7556L65.3513 58.5467L67.3718 57.5365C68.2757 58.1745 69.4189 58.6531 70.828 58.8392V60.7533ZM73.0877 68.3569L71.7584 65.1666L73.0346 62.0295L70.9609 60.7268V58.8126H70.9875C71.0406 58.8126 71.0672 58.8126 71.1204 58.8126C72.6358 58.6265 73.8321 58.0948 74.7626 57.4035L76.278 58.4404C75.3741 59.1848 73.0877 68.3569 73.0877 68.3569Z" stroke="white" stroke-width="3" stroke-miterlimit="10"/>
</svg>
