<svg width="90" height="90" viewBox="0 0 90 90" fill="none" xmlns="http://www.w3.org/2000/svg">
<path d="M45 90C69.8528 90 90 69.8528 90 45C90 20.1472 69.8528 0 45 0C20.1472 0 0 20.1472 0 45C0 69.8528 20.1472 90 45 90Z" fill="#4B62FF"/>
<path d="M59.3513 41.2031C59.3513 40.0381 58.2976 39.0938 56.9977 39.0938H32.755C31.455 39.0938 30.4013 40.0381 30.4013 41.2031C30.4013 42.3681 31.455 43.3125 32.755 43.3125H56.9977C58.2976 43.3125 59.3513 42.3681 59.3513 41.2031Z" fill="white"/>
<path d="M32.755 47.5313C31.455 47.5313 30.4013 48.4756 30.4013 49.6406C30.4013 50.8056 31.455 51.75 32.755 51.75H47.4784C48.7783 51.75 49.8321 50.8056 49.8321 49.6406C49.8321 48.4756 48.7783 47.5313 47.4784 47.5313H32.755Z" fill="white"/>
<path d="M38.2863 67.7813H30.4146C27.819 67.7813 25.7073 65.8887 25.7073 63.5625V26.4375C25.7073 24.1113 27.819 22.2188 30.4146 22.2188H59.3516C61.9472 22.2188 64.0589 24.1113 64.0589 26.4375V39.4102C64.0589 40.5752 65.1127 41.5195 66.4126 41.5195C67.7125 41.5195 68.7663 40.5752 68.7663 39.4102V26.4375C68.7663 21.7851 64.5428 18 59.3516 18H30.4146C25.2234 18 21 21.7851 21 26.4375V63.5625C21 68.215 25.2234 72 30.4146 72H38.2863C39.5863 72 40.64 71.0557 40.64 69.8906C40.64 68.7256 39.5863 67.7813 38.2863 67.7813Z" fill="white"/>
<path d="M72.9351 48.5407C70.182 46.0734 65.7025 46.0733 62.9512 48.5391L50.0293 60.0942C49.7548 60.3396 49.5524 60.6419 49.4397 60.9743L46.6255 69.2774C46.3761 70.0135 46.5934 70.8129 47.1929 71.3635C47.642 71.776 48.252 71.9999 48.8778 71.9999C49.0871 71.9999 49.2985 71.9748 49.5059 71.9233L59.0059 69.5649C59.3969 69.4678 59.7532 69.2819 60.0403 69.025L72.9352 57.4902C75.6883 55.0228 75.6883 51.0083 72.9351 48.5407ZM57.1529 65.6474L52.3735 66.8339L53.7722 62.707L62.4912 54.9102L65.8205 57.8939L57.1529 65.6474ZM69.6083 54.5058L69.1523 54.9137L65.8236 51.9305L66.2781 51.524C67.1958 50.7016 68.689 50.7016 69.6067 51.524C70.5244 52.3465 70.5244 53.6847 69.6083 54.5058Z" fill="white"/>
<path d="M56.9977 30.6563H32.755C31.455 30.6563 30.4013 31.6006 30.4013 32.7656C30.4013 33.9306 31.455 34.875 32.755 34.875H56.9977C58.2976 34.875 59.3513 33.9306 59.3513 32.7656C59.3513 31.6006 58.2976 30.6563 56.9977 30.6563Z" fill="white"/>
</svg>
