<svg width="20" height="20" viewBox="0 0 20 20" fill="none" xmlns="http://www.w3.org/2000/svg">
<path fill-rule="evenodd" clip-rule="evenodd" d="M5.86139 0.0633122C6.92673 0.0157874 7.26733 0.00390625 9.97624 0.00390625C12.6851 0.00390625 13.0257 0.0157874 14.095 0.0593518C15.1604 0.106877 15.8851 0.277174 16.5188 0.522718C17.1723 0.780144 17.7307 1.12074 18.2851 1.67519C18.8396 2.22965 19.1842 2.7841 19.4376 3.44153C19.6832 4.07915 19.8535 4.80391 19.901 5.86529C19.9485 6.93064 19.9604 7.26727 19.9604 9.98014C19.9604 12.693 19.9485 13.0296 19.901 14.095C19.8535 15.1603 19.6832 15.8851 19.4376 16.5188C19.1802 17.1722 18.8396 17.7306 18.2851 18.2851C17.7307 18.8396 17.1762 19.1841 16.5188 19.4376C15.8812 19.6831 15.1564 19.8534 14.095 19.9009C13.0297 19.9485 12.6931 19.9603 9.9802 19.9603C7.26733 19.9603 6.93069 19.9485 5.86535 19.9009C4.8 19.8534 4.07525 19.6831 3.44158 19.4376C2.78812 19.1801 2.2297 18.8396 1.67525 18.2851C1.12079 17.7306 0.776238 17.1762 0.522772 16.5188C0.277228 15.8811 0.106931 15.1564 0.0594059 14.095C0.0118812 13.0296 0 12.6891 0 9.98014C0 7.27123 0.0118812 6.93064 0.0594059 5.86925C0.106931 4.80391 0.277228 4.07915 0.522772 3.44549C0.780198 2.79203 1.12079 2.23361 1.67525 1.67915C2.2297 1.1247 2.78416 0.780144 3.44158 0.526679C4.07525 0.281134 4.8 0.110837 5.86139 0.0633122ZM14.0079 1.86133C12.9545 1.81381 12.6416 1.80193 9.97624 1.80193C7.31089 1.80193 6.99802 1.80985 5.94455 1.86133C4.9703 1.9049 4.44356 2.07123 4.09109 2.20589C3.62376 2.3841 3.29109 2.60193 2.94257 2.95044C2.59406 3.29896 2.3802 3.63163 2.19802 4.09896C2.05941 4.45143 1.89703 4.97816 1.85347 5.95242C1.80594 7.00589 1.79406 7.31876 1.79406 9.9841C1.79406 12.6495 1.80594 12.9623 1.85347 14.0158C1.89703 14.99 2.06337 15.5168 2.19802 15.8693C2.37624 16.3366 2.59406 16.6693 2.94257 17.0178C3.29109 17.3663 3.62376 17.5801 4.09109 17.7623C4.44356 17.9009 4.9703 18.0633 5.94455 18.1069C6.99802 18.1544 7.31089 18.1663 9.97624 18.1663C12.6416 18.1663 12.9545 18.1544 14.0079 18.1069C14.9822 18.0633 15.5089 17.897 15.8614 17.7623C16.3287 17.5841 16.6614 17.3663 17.0099 17.0178C17.3584 16.6693 17.5723 16.3366 17.7545 15.8693C17.8931 15.5168 18.0554 14.99 18.099 14.0158C18.1465 12.9623 18.1584 12.6495 18.1584 9.9841C18.1584 7.31876 18.1465 7.00589 18.099 5.95242C18.0554 4.97816 17.8891 4.45143 17.7545 4.09896C17.5762 3.63163 17.3584 3.29896 17.0099 2.95044C16.6614 2.60193 16.3287 2.38806 15.8614 2.20589C15.5089 2.06727 14.9822 1.9049 14.0079 1.86133Z" fill="#8E919C"/>
<path fill-rule="evenodd" clip-rule="evenodd" d="M4.8515 9.98016C4.8515 7.14848 7.14853 4.85541 9.97625 4.85541C12.804 4.85541 15.101 7.15244 15.101 9.98016C15.101 12.8079 12.804 15.1049 9.97625 15.1049C7.14853 15.1049 4.8515 12.8118 4.8515 9.98016ZM6.64952 9.98016C6.64952 11.8178 8.13863 13.3069 9.97625 13.3069C11.8139 13.3069 13.303 11.8178 13.303 9.98016C13.303 8.14254 11.8139 6.65343 9.97625 6.65343C8.13863 6.65343 6.64952 8.14254 6.64952 9.98016Z" fill="#8E919C"/>
<path d="M15.303 5.84948C15.9635 5.84948 16.499 5.31399 16.499 4.65344C16.499 3.99288 15.9635 3.4574 15.303 3.4574C14.6424 3.4574 14.1069 3.99288 14.1069 4.65344C14.1069 5.31399 14.6424 5.84948 15.303 5.84948Z" fill="#8E919C"/>
</svg>
