<svg width="197" height="42" viewBox="0 0 197 42" fill="none" xmlns="http://www.w3.org/2000/svg">
<path d="M133.997 9C136.358 9 138.273 6.98528 138.273 4.5C138.273 2.01472 136.358 0 133.997 0C131.635 0 129.72 2.01472 129.72 4.5C129.72 6.98528 131.635 9 133.997 9Z" fill="#272E79"/>
<path d="M0 26.9999C0 24.1833 2.10608 21.8999 4.70407 21.8999H9.40813V32.0999H4.70407C2.10608 32.0999 0 29.8166 0 26.9999Z" fill="#272E79"/>
<path d="M9.40808 16.95C9.40808 14.2162 11.578 12 14.2548 12C16.9314 12 19.1014 14.2162 19.1014 16.95C19.1014 19.6838 16.9314 21.9 14.2548 21.9H9.40808V16.95Z" fill="#272E79"/>
<path d="M9.40808 32.1H14.2548C16.9314 32.1 19.1014 34.3163 19.1014 37.0501C19.1014 39.7838 16.9314 42 14.2548 42C11.578 42 9.40808 39.7838 9.40808 37.0501V32.1Z" fill="#272E79"/>
<path fill-rule="evenodd" clip-rule="evenodd" d="M33.3557 12H39.0576L39.7694 13.4977C41.4689 12.5419 43.4105 12 45.4723 12C48.8106 12 51.8337 13.4206 54.0252 15.7188C56.2166 13.4206 59.2396 12 62.578 12C69.2698 12 74.6945 17.7083 74.6945 24.75C74.6945 30.4999 74.6943 36.25 74.6945 42H67.5672C67.5665 36.25 67.5672 30.4999 67.5672 24.75C67.5672 21.8505 65.3335 19.5 62.578 19.5C59.8226 19.5 57.5889 21.8505 57.5889 24.75C57.5889 30.4999 57.5895 36.25 57.5889 42H50.4614C50.4608 36.25 50.4614 30.4999 50.4614 24.75C50.4614 21.8505 48.2277 19.5 45.4723 19.5C42.7169 19.5 40.4832 21.8505 40.4832 24.75C40.4832 30.4999 40.4838 36.25 40.4832 42H33.3557V12ZM100.353 12H106.055V42H100.353L99.2907 39.7645C97.1145 41.1819 94.5481 42 91.8001 42C83.9277 42 77.5455 35.2842 77.5455 27C77.5455 18.7157 83.9277 12 91.8001 12C94.5481 12 97.1145 12.8181 99.2907 14.2355L100.353 12ZM98.9274 27C98.9274 22.8578 95.7363 19.5 91.8001 19.5C87.8639 19.5 84.6728 22.8578 84.6728 27C84.6728 31.1421 87.8639 34.5 91.8001 34.5C95.7363 34.5 98.9274 31.1421 98.9274 27ZM111.757 12C111.757 17.75 111.757 23.5001 111.757 29.25C111.757 36.2916 117.182 42 123.874 42C124.111 42 124.349 41.9996 124.587 42V34.5C124.349 34.5 124.111 34.5 123.874 34.5C121.1 34.5 118.806 32.0163 118.884 29.1V19.5H124.587V12H111.757ZM130.288 12H137.415V42H130.288V12ZM155.092 34.5C159.028 34.5 162.219 31.1421 162.219 27C162.219 22.8578 159.028 19.5 155.092 19.5C151.155 19.5 147.964 22.8578 147.964 27C147.964 31.1421 151.155 34.5 155.092 34.5ZM155.092 42C162.964 42 169.346 35.2842 169.346 27C169.346 18.7157 162.964 12 155.092 12C147.219 12 140.836 18.7157 140.836 27C140.836 35.2842 147.219 42 155.092 42ZM178.469 12H172.767V42H179.895C179.895 36.25 179.895 30.4999 179.895 24.75C179.895 21.8505 182.128 19.5 184.884 19.5C187.639 19.5 189.873 21.8505 189.873 24.75C189.873 30.4999 189.872 36.25 189.873 42H197C197 36.25 196.992 30.5 197 24.75C197 17.7083 191.576 12 184.884 12C182.822 12 180.88 12.5419 179.181 13.4977L178.469 12Z" fill="black"/>
</svg>
