<svg width="90" height="90" viewBox="0 0 90 90" fill="none" xmlns="http://www.w3.org/2000/svg">
<path d="M45 90C69.8528 90 90 69.8528 90 45C90 20.1472 69.8528 0 45 0C20.1472 0 0 20.1472 0 45C0 69.8528 20.1472 90 45 90Z" fill="#4B62FF"/>
<path d="M75 23.858V60.6516C75 63.8468 72.876 66.4611 70.28 66.4611H47.4667V74.2071H55.3333V79H35.6273V74.1587H43.5333V66.4127H20.72C18.124 66.4127 16 63.7984 16 60.6032V23.8095C16 20.6143 18.124 18 20.72 18H70.28C72.876 18.0484 75 20.6627 75 23.858Z" stroke="white" stroke-width="4" stroke-miterlimit="10"/>
<path d="M70 45.214V45.7046H66.2115L62.5303 50.3422L58.9205 45.8384H52.523V53.7313H57.5624V61H47.0904V53.7313H52.1298V45.3032H58.9562L62.2443 41.2007V33.932H49.9497L44.6601 40.5318L39.3348 33.8874H27.0759V45.9275H32.5084V53.5529H21V45.9275H26.647V33.2631H39.4063L44.4457 26.9755V21H44.8031V26.8863L49.9854 33.3523H62.4945V33.3969H62.6375V41.0223L65.9971 45.214H70Z" stroke="white" stroke-width="2" stroke-miterlimit="10"/>
</svg>
