<svg width="21" height="18" viewBox="0 0 21 18" fill="none" xmlns="http://www.w3.org/2000/svg">
<path fill-rule="evenodd" clip-rule="evenodd" d="M10.4239 14.1549C10.6337 13.9525 10.8441 13.7495 11.055 13.5457H11.0566C11.0859 13.5668 11.1144 13.5866 11.1422 13.606C11.1887 13.6384 11.2333 13.6694 11.2766 13.7028C11.8243 14.104 12.3715 14.5054 12.9187 14.9067C13.8505 15.5902 14.7823 16.2736 15.7159 16.9557C16.5691 17.5795 17.3171 17.2998 17.5513 16.2768L17.556 16.2517C17.9097 14.5959 18.2637 12.9405 18.6176 11.2852C19.2196 8.46965 19.8216 5.65444 20.4223 2.83798C20.4513 2.69981 20.4823 2.56173 20.5133 2.42361C20.6113 1.98679 20.7094 1.54958 20.7476 1.10783C20.8246 0.22469 20.185 -0.213738 19.36 0.102119C16.6383 1.14623 13.916 2.18909 11.1939 3.23189C9.61431 3.837 8.03476 4.4421 6.45542 5.0474C5.98807 5.22646 5.52051 5.40498 5.05295 5.58349C3.73144 6.08805 2.41 6.59258 1.09371 7.10912C0.771567 7.2364 0.457281 7.42026 0.19171 7.64026C-0.0958617 7.87912 -0.0502903 8.20755 0.263995 8.41655C0.45047 8.53245 0.651904 8.62232 0.86271 8.68369C2.26843 9.12736 3.67645 9.5637 5.08671 9.99269C5.249 10.028 5.37667 10.1533 5.41514 10.3148C5.73118 11.2938 6.05077 12.2719 6.37037 13.2501C6.65304 14.1152 6.93573 14.9804 7.216 15.8463C7.29771 16.0977 7.447 16.2155 7.71414 16.2297C8.107 16.2517 8.415 16.104 8.68842 15.8368C9.26267 15.2753 9.84116 14.7172 10.4239 14.1549ZM7.80295 14.865C7.79687 14.8901 7.78974 14.9194 7.78171 14.9553H7.78014C7.76296 14.9126 7.74824 14.8776 7.73548 14.8472C7.71436 14.7969 7.69858 14.7593 7.68585 14.7211C7.5623 14.3445 7.43902 13.9676 7.31573 13.5907C6.92311 12.3906 6.53039 11.1902 6.12857 9.99426C6.061 9.79155 6.10971 9.70355 6.27942 9.59826C7.70651 8.70658 9.13273 7.81404 10.559 6.9215C12.4606 5.73145 14.3622 4.5414 16.2659 3.3534C16.4386 3.24889 16.6254 3.16952 16.8206 3.11769C16.8782 3.10247 16.9486 3.13088 17.0188 3.1592C17.0501 3.17181 17.0813 3.1844 17.1113 3.19312C17.0996 3.22091 17.09 3.25128 17.0804 3.28177C17.059 3.34956 17.0374 3.41799 16.9919 3.46026C16.5613 3.8543 16.1256 4.24395 15.6898 4.6337C15.4878 4.81438 15.2857 4.99508 15.0841 5.17626C14.5316 5.67105 13.9794 6.16594 13.4272 6.66078C11.7399 8.17285 10.0531 9.6845 8.35999 11.1917C8.20111 11.3279 8.10697 11.5247 8.10071 11.7338C8.03288 12.5541 7.95568 13.3724 7.87843 14.1911C7.86082 14.3777 7.84321 14.5643 7.82571 14.751C7.8226 14.7841 7.81472 14.8166 7.80295 14.865Z" fill="#8E919C"/>
</svg>
