<svg width="20" height="20" viewBox="0 0 20 20" fill="none" xmlns="http://www.w3.org/2000/svg">
<path fill-rule="evenodd" clip-rule="evenodd" d="M13.0699 0H6.93013C1.32675 0 0 1.32675 0 6.93013V13.0699C0 18.6733 1.32675 20 6.93013 20H13.0699C18.6733 20 20 18.6733 20 13.0699V6.93013C20 1.32675 18.6591 0 13.0699 0ZM16.1468 14.2696H14.693C14.1426 14.2696 13.9732 13.832 12.9852 12.8299C12.1242 11.9972 11.7431 11.8843 11.5314 11.8843C11.235 11.8843 11.1503 11.9689 11.1503 12.3783V13.6909C11.1503 14.0438 11.0374 14.2555 10.1059 14.2555C8.5674 14.2555 6.85956 13.3239 5.65984 11.5879C3.85321 9.04728 3.35921 7.14185 3.35921 6.74665C3.35921 6.53493 3.4439 6.33733 3.85321 6.33733H5.30699C5.67396 6.33733 5.8151 6.5067 5.95625 6.90191C6.67608 8.97671 7.87579 10.7975 8.36979 10.7975C8.55328 10.7975 8.63797 10.7128 8.63797 10.247V8.10162C8.58151 7.11362 8.05928 7.02893 8.05928 6.67608C8.05928 6.5067 8.20042 6.33733 8.42625 6.33733H10.7128C11.0233 6.33733 11.1362 6.5067 11.1362 6.87368V9.76711C11.1362 10.0776 11.2773 10.1905 11.362 10.1905C11.5455 10.1905 11.7008 10.0776 12.0395 9.73888C13.084 8.5674 13.832 6.76076 13.832 6.76076C13.9308 6.54905 14.1002 6.35145 14.4672 6.35145H15.921C16.3585 6.35145 16.4573 6.57728 16.3585 6.88779C16.175 7.73465 14.3966 10.247 14.3966 10.247C14.2414 10.5011 14.1849 10.614 14.3966 10.8963C14.5519 11.108 15.06 11.5455 15.3987 11.9407C16.0198 12.6464 16.4996 13.2392 16.6267 13.6486C16.7678 14.0579 16.5561 14.2696 16.1468 14.2696Z" fill="#8E919C"/>
</svg>
