<svg width="20" height="20" viewBox="0 0 20 20" fill="none" xmlns="http://www.w3.org/2000/svg">
<path fill-rule="evenodd" clip-rule="evenodd" d="M16.9791 2.90632C15.1274 1.0397 12.6066 -0.00689657 9.97938 3.42045e-05C4.52495 3.42045e-05 0.0863523 4.44785 0.08398 9.90973C0.0818744 11.6488 0.53748 13.3576 1.40489 14.8641L0 20L5.24566 18.6219C6.69636 19.4136 8.32208 19.8284 9.97416 19.8285H9.97843C15.4319 19.8285 19.8715 15.3825 19.8734 9.91828C19.8822 7.28766 18.8401 4.76278 16.9791 2.90632ZM9.97938 18.1543H9.97606C8.50264 18.1548 7.05622 17.7583 5.78845 17.0063L5.48811 16.8276L2.37706 17.6454L3.20785 14.6042L3.01237 14.2924C2.18932 12.9804 1.7536 11.462 1.75551 9.91258C1.75551 5.37115 5.44684 1.67604 9.98365 1.67604C14.5253 1.67919 18.205 5.36819 18.2037 9.91686C18.2018 14.4588 14.5124 18.1543 9.97938 18.1543ZM14.4906 11.9849C14.2434 11.8609 13.0278 11.2621 12.801 11.1771C12.5742 11.092 12.4096 11.053 12.2449 11.3011C12.0803 11.5491 11.6063 12.1066 11.4621 12.2719C11.3178 12.4373 11.1736 12.4577 10.9264 12.3337C10.6792 12.2097 9.88259 11.9483 8.93794 11.1048C8.20299 10.4481 7.7067 9.63744 7.56199 9.38939C7.41728 9.14134 7.54681 9.00924 7.67065 8.88379C7.78167 8.77307 7.91784 8.59487 8.0412 8.44993C8.16456 8.305 8.20631 8.20236 8.28887 8.03699C8.37143 7.87162 8.32967 7.72716 8.26799 7.60314C8.20631 7.47911 7.71192 6.26024 7.50553 5.76461C7.30483 5.28182 7.10129 5.34692 6.94946 5.33694C6.80712 5.32981 6.64059 5.32838 6.475 5.32838C6.22175 5.33492 5.98278 5.44726 5.81597 5.63821C5.58918 5.88626 4.95055 6.48548 4.95055 7.70388C4.95055 8.92228 5.83637 10.1003 5.96021 10.2657C6.08404 10.431 7.70338 12.932 10.1829 14.005C10.6431 14.204 11.1135 14.3785 11.5921 14.5277C12.1847 14.7177 12.7237 14.6897 13.1497 14.626C13.6242 14.5548 14.6125 14.0268 14.8184 13.4485C15.0243 12.8702 15.0243 12.3741 14.9608 12.271C14.8972 12.1679 14.7378 12.1089 14.4906 11.9849Z" fill="#8E919C"/>
</svg>
